<?xml version="1.0" encoding="UTF-8" standalone="no"?>
<!DOCTYPE svg PUBLIC "-//W3C//DTD SVG 1.1//EN" "http://www.w3.org/Graphics/SVG/1.1/DTD/svg11.dtd">
<svg width="100%" height="100%" viewBox="0 0 373 117" version="1.1" xmlns="http://www.w3.org/2000/svg" xmlns:xlink="http://www.w3.org/1999/xlink" xml:space="preserve" xmlns:serif="http://www.serif.com/" style="fill-rule:evenodd;clip-rule:evenodd;stroke-linejoin:round;stroke-miterlimit:2;">
    <g>
        <path d="M2.4,48.6L266.1,48.6C267.2,48.6 268.2,47.8 268.5,46.8C273.1,32.2 277.6,17.7 282.2,3.1C283.2,0 278.3,-1.3 277.4,1.8C272.8,16.4 268.3,30.9 263.7,45.5C264.5,44.9 265.3,44.3 266.1,43.7L2.4,43.7C-0.8,43.6 -0.8,48.6 2.4,48.6Z" style="fill:rgb(30,27,25);fill-rule:nonzero;"/>
    </g>
    <g>
        <path d="M0.9,57.4L0.9,103.1C0.9,106.3 5.9,106.3 5.9,103.1L5.9,57.4C5.9,54.2 0.9,54.2 0.9,57.4Z" style="fill:rgb(30,27,25);fill-rule:nonzero;"/>
    </g>
    <g>
        <path d="M20.9,56.2C14.4,65.6 7.8,75.1 1.3,84.5C-0.5,87.2 3.8,89.7 5.6,87C12.2,77.5 18.7,68.1 25.3,58.6C27.1,56 22.7,53.5 20.9,56.2Z" style="fill:rgb(30,27,25);fill-rule:nonzero;"/>
    </g>
    <g>
        <path d="M24,102.4C20.3,93.6 16.5,84.7 12.8,75.9C11.6,73 6.8,74.3 8,77.2C11.7,86 15.5,94.9 19.2,103.7C20.4,106.7 25.3,105.4 24,102.4Z" style="fill:rgb(30,27,25);fill-rule:nonzero;"/>
    </g>
    <g>
        <path d="M31.7,103.8C36.2,88.6 40.7,73.4 45.2,58.1L40.4,58.1C44.2,73.3 48,88.5 51.8,103.8C52.6,106.9 57.4,105.6 56.6,102.5C52.7,87.2 49,72 45.2,56.8C44.6,54.4 41.1,54.5 40.4,56.8C35.9,72 31.4,87.2 26.9,102.5C25.9,105.5 30.7,106.8 31.7,103.8Z" style="fill:rgb(30,27,25);fill-rule:nonzero;"/>
    </g>
    <g>
        <path d="M34.5,87.7L49.6,87.7C52.8,87.7 52.8,82.7 49.6,82.7L34.5,82.7C31.3,82.7 31.3,87.7 34.5,87.7Z" style="fill:rgb(30,27,25);fill-rule:nonzero;"/>
    </g>
    <g>
        <path d="M60,57.4L60,103.1C60,104.5 61.1,105.6 62.5,105.6L78.9,105.6C82.1,105.6 82.1,100.6 78.9,100.6L62.5,100.6C63.3,101.4 64.2,102.3 65,103.1L65,57.4C65,54.2 60,54.2 60,57.4Z" style="fill:rgb(30,27,25);fill-rule:nonzero;"/>
    </g>
    <g>
        <path d="M89.7,103.1L89.7,57.4C88.1,57.8 86.6,58.2 85,58.7C91.8,73.7 98.5,88.8 105.2,103.8C106.3,106.2 109.9,104.9 109.9,102.5L109.9,57.4C109.9,54.2 104.9,54.2 104.9,57.4L104.9,102.5C106.5,102.1 108,101.7 109.6,101.2C102.8,86.2 96.1,71.1 89.4,56.1C88.3,53.7 84.7,55 84.7,57.4L84.7,103.1C84.7,106.3 89.7,106.3 89.7,103.1Z" style="fill:rgb(30,27,25);fill-rule:nonzero;"/>
    </g>
    <g>
        <path d="M118.7,57.4L118.7,103.1C118.7,105.2 120.8,106 122.5,105.3C132.3,101 141.5,91.5 141.5,80.3C141.5,69.1 132.4,59.6 122.5,55.3C119.6,54 117,58.3 120,59.6C128.2,63.1 136.5,70.8 136.5,80.3C136.5,89.8 128.1,97.4 120,101C121.3,101.7 122.5,102.4 123.8,103.2L123.8,57.5C123.7,54.2 118.7,54.2 118.7,57.4Z" style="fill:rgb(30,27,25);fill-rule:nonzero;"/>
    </g>
    <g>
        <path d="M147,59.9L162.8,59.9C162,58.8 161.2,57.8 160.4,56.7C154.6,71.9 148.8,87.1 143,102.4C142.4,103.9 143.9,105.6 145.4,105.6L163.8,105.6C167,105.6 167,100.6 163.8,100.6L145.4,100.6C146.2,101.7 147,102.7 147.8,103.8C153.6,88.6 159.4,73.4 165.2,58.1C165.8,56.6 164.3,54.9 162.8,54.9L147,54.9C143.8,54.9 143.8,59.9 147,59.9Z" style="fill:rgb(30,27,25);fill-rule:nonzero;"/>
    </g>
    <g>
        <path d="M172.5,57.4L172.5,103.1C172.5,106.3 177.5,106.3 177.5,103.1L177.5,57.4C177.5,54.2 172.5,54.2 172.5,57.4Z" style="fill:rgb(30,27,25);fill-rule:nonzero;"/>
    </g>
    <g>
        <path d="M191.2,103.1L191.2,57.4C190.4,58.2 189.5,59.1 188.7,59.9C194.9,60 201.6,63.2 201.9,70C202.3,77.2 196.1,80.6 189.7,80.4C186.5,80.3 186.5,85.3 189.7,85.4C198.9,85.8 207.3,79.8 206.9,70C206.6,60.3 197.6,55 188.7,54.9C187.3,54.9 186.2,56.1 186.2,57.4L186.2,103.1C186.2,106.3 191.2,106.3 191.2,103.1Z" style="fill:rgb(30,27,25);fill-rule:nonzero;"/>
    </g>
    <g>
        <path d="M206.9,102.4C204.3,95.3 201.7,88.3 199,81.2C197.9,78.2 193.1,79.5 194.2,82.5C196.8,89.6 199.4,96.6 202.1,103.7C203.2,106.7 208,105.4 206.9,102.4Z" style="fill:rgb(30,27,25);fill-rule:nonzero;"/>
    </g>
    <g>
        <path d="M220.5,103.1L220.5,57.4C218.9,57.8 217.4,58.2 215.8,58.7C222.6,73.7 229.3,88.8 236,103.8C237.1,106.2 240.7,104.9 240.7,102.5L240.7,57.4C240.7,54.2 235.7,54.2 235.7,57.4L235.7,102.5C237.3,102.1 238.8,101.7 240.4,101.2C233.6,86.2 226.9,71.1 220.2,56.1C219.1,53.7 215.5,55 215.5,57.4L215.5,103.1C215.5,106.3 220.5,106.3 220.5,103.1Z" style="fill:rgb(30,27,25);fill-rule:nonzero;"/>
    </g>
    <g>
        <path d="M250.9,103.8C255.6,88.6 260.2,73.4 264.9,58.1C265.8,55 261,53.7 260.1,56.8C255.4,72 250.8,87.2 246.1,102.5C245.1,105.5 250,106.8 250.9,103.8Z" style="fill:rgb(30,27,25);fill-rule:nonzero;"/>
    </g>
    <g>
        <path d="M266.1,85.3L279.4,85.3C281,85.3 282.3,83.7 281.8,82.1C279.6,75.3 277.5,68.5 275.3,61.7C274.5,59.3 271.3,59.4 270.5,61.7C268.2,68.5 265.9,75.3 263.6,82.1C262.6,85.2 267.4,86.5 268.4,83.4C270.7,76.6 273,69.8 275.3,63L270.5,63C272.7,69.8 274.8,76.6 277,83.4C277.8,82.3 278.6,81.3 279.4,80.2L266.1,80.2C262.9,80.3 262.9,85.3 266.1,85.3Z" style="fill:rgb(30,27,25);fill-rule:nonzero;"/>
    </g>
    <g>
        <path d="M264.3,103.8C265.3,100.8 266.4,97.8 267.4,94.8C266.6,95.4 265.8,96 265,96.6L283,96.6C282.2,96 281.4,95.4 280.6,94.8C282.9,101.5 285.2,108.2 287.5,114.9C287.9,116 288.8,116.7 289.9,116.7L370,116.7C373.2,116.7 373.2,111.7 370,111.7L289.9,111.7C290.7,112.3 291.5,112.9 292.3,113.5C290,106.8 287.7,100.1 285.4,93.4C285,92.3 284.1,91.6 283,91.6L265,91.6C263.8,91.6 263,92.4 262.6,93.4C261.6,96.4 260.5,99.4 259.5,102.4C258.4,105.5 263.2,106.8 264.3,103.8Z" style="fill:rgb(30,27,25);fill-rule:nonzero;"/>
    </g>
    <g>
        <path d="M281.2,57.5C286,72.9 290.8,88.4 295.6,103.8C296.3,106.2 299.7,106.2 300.4,103.8C305.2,88.6 309.9,73.4 314.6,58.1C315.6,55 310.7,53.7 309.8,56.8C305,72 300.3,87.2 295.6,102.5L300.4,102.5C295.6,87.1 290.8,71.6 286,56.2C285,53.1 280.2,54.4 281.2,57.5Z" style="fill:rgb(30,27,25);fill-rule:nonzero;"/>
    </g>
    <g>
        <path d="M315.4,103.1C319.9,87.9 324.4,72.7 328.9,57.4L324.1,57.4C327.9,72.6 331.7,87.8 335.5,103.1C336.3,106.2 341.1,104.9 340.3,101.8C336.5,86.6 332.7,71.4 328.9,56.1C328.3,53.7 324.8,53.8 324.1,56.1C319.6,71.3 315.1,86.5 310.6,101.8C309.7,104.9 314.5,106.2 315.4,103.1Z" style="fill:rgb(30,27,25);fill-rule:nonzero;"/>
    </g>
    <g>
        <path d="M318.3,87.1L333.4,87.1C336.6,87.1 336.6,82.1 333.4,82.1L318.3,82.1C315.1,82.1 315,87.1 318.3,87.1Z" style="fill:rgb(30,27,25);fill-rule:nonzero;"/>
    </g>
    <g>
        <path d="M342.5,94C343.1,102.4 352,107.1 359.8,105.1C366.7,103.3 369.5,96.1 368,89.5C367.2,85.9 365.3,82.5 362.6,80C359.1,76.7 354,75.7 351.4,71.5C349.2,68 348.9,62.5 353.5,60.9C357.6,59.5 364,60.7 364.1,65.8C364.2,69 369.2,69 369.1,65.8C368.9,57.8 361.4,54.8 354.2,55.7C346.9,56.6 343.4,63.5 345.4,70.3C346.4,73.8 348.7,76.8 351.6,78.9C355.8,82 360.4,83.2 362.5,88.5C363.9,92.1 363.9,97.1 360.4,99.4C356,102.3 347.9,99.7 347.5,94C347.3,90.9 342.3,90.8 342.5,94Z" style="fill:rgb(30,27,25);fill-rule:nonzero;"/>
    </g>
    <g>
        <path d="M274.2,48.6L295.8,48.6C297.2,48.6 298.2,47.4 298.3,46.1C299.3,35.7 291.4,24.2 280.3,23.9C277.1,23.8 277.1,28.8 280.3,28.9C288.8,29.1 294,38.4 293.3,46.1C294.1,45.3 295,44.4 295.8,43.6L274.2,43.6C271,43.6 271,48.6 274.2,48.6Z" style="fill:rgb(30,27,25);fill-rule:nonzero;"/>
    </g>
    <g>
        <path d="M255.1,3.1C258.7,15.3 262.3,27.6 265.9,39.8C266.8,42.9 271.6,41.6 270.7,38.5C267.1,26.3 263.5,14 259.9,1.8C259,-1.3 254.2,0 255.1,3.1Z" style="fill:rgb(30,27,25);fill-rule:nonzero;"/>
    </g>
</svg>
