<?xml version="1.0" encoding="utf-8"?>
<!-- Generator: Adobe Illustrator 19.2.0, SVG Export Plug-In . SVG Version: 6.00 Build 0)  -->
<svg version="1.1" id="Layer_1" xmlns="http://www.w3.org/2000/svg" xmlns:xlink="http://www.w3.org/1999/xlink" x="0px" y="0px"
	 viewBox="0 0 372.4 116.7" style="enable-background:new 0 0 372.4 116.7;" xml:space="preserve">
<style type="text/css">
	.st0{fill:#1E1B19;}
</style>
<g>
	<path class="st0" d="M2.4,48.6c29.9,0,59.7,0,89.6,0c47.2,0,94.3,0,141.5,0c10.9,0,21.7,0,32.6,0c1.1,0,2.1-0.8,2.4-1.8
		c4.6-14.6,9.1-29.1,13.7-43.7c1-3.1-3.9-4.4-4.8-1.3c-4.6,14.6-9.1,29.1-13.7,43.7c0.8-0.6,1.6-1.2,2.4-1.8c-29.9,0-59.7,0-89.6,0
		c-47.2,0-94.3,0-141.5,0c-10.9,0-21.7,0-32.6,0C-0.8,43.6-0.8,48.6,2.4,48.6L2.4,48.6z"/>
</g>
<g>
	<path class="st0" d="M0.9,57.4c0,15.2,0,30.4,0,45.7c0,3.2,5,3.2,5,0c0-15.2,0-30.4,0-45.7C5.9,54.2,0.9,54.2,0.9,57.4L0.9,57.4z"
		/>
</g>
<g>
	<path class="st0" d="M20.9,56.2C14.4,65.6,7.8,75.1,1.3,84.5c-1.8,2.7,2.5,5.2,4.3,2.5c6.6-9.5,13.1-18.9,19.7-28.4
		C27.1,56,22.7,53.5,20.9,56.2L20.9,56.2z"/>
</g>
<g>
	<path class="st0" d="M24,102.4c-3.7-8.8-7.5-17.7-11.2-26.5C11.6,73,6.8,74.3,8,77.2c3.7,8.8,7.5,17.7,11.2,26.5
		C20.4,106.7,25.3,105.4,24,102.4L24,102.4z"/>
</g>
<g>
	<path class="st0" d="M31.7,103.8c4.5-15.2,9-30.4,13.5-45.7c-1.6,0-3.2,0-4.8,0c3.8,15.2,7.6,30.4,11.4,45.7
		c0.8,3.1,5.6,1.8,4.8-1.3C52.7,87.2,49,72,45.2,56.8c-0.6-2.4-4.1-2.3-4.8,0c-4.5,15.2-9,30.4-13.5,45.7
		C25.9,105.5,30.7,106.8,31.7,103.8L31.7,103.8z"/>
</g>
<g>
	<path class="st0" d="M34.5,87.7c5,0,10.1,0,15.1,0c3.2,0,3.2-5,0-5c-5,0-10.1,0-15.1,0C31.3,82.7,31.3,87.7,34.5,87.7L34.5,87.7z"
		/>
</g>
<g>
	<path class="st0" d="M60,57.4c0,15.2,0,30.4,0,45.7c0,1.4,1.1,2.5,2.5,2.5c5.5,0,10.9,0,16.4,0c3.2,0,3.2-5,0-5
		c-5.5,0-10.9,0-16.4,0c0.8,0.8,1.7,1.7,2.5,2.5c0-15.2,0-30.4,0-45.7C65,54.2,60,54.2,60,57.4L60,57.4z"/>
</g>
<g>
	<path class="st0" d="M89.7,103.1c0-15.2,0-30.4,0-45.7c-1.6,0.4-3.1,0.8-4.7,1.3c6.8,15,13.5,30.1,20.2,45.1
		c1.1,2.4,4.7,1.1,4.7-1.3c0-15,0-30.1,0-45.1c0-3.2-5-3.2-5,0c0,15,0,30.1,0,45.1c1.6-0.4,3.1-0.8,4.7-1.3
		c-6.8-15-13.5-30.1-20.2-45.1c-1.1-2.4-4.7-1.1-4.7,1.3c0,15.2,0,30.4,0,45.7C84.7,106.3,89.7,106.3,89.7,103.1L89.7,103.1z"/>
</g>
<g>
	<path class="st0" d="M118.7,57.4c0,15.2,0,30.4,0,45.7c0,2.1,2.1,2.9,3.8,2.2c9.8-4.3,19-13.8,19-25c0-11.2-9.1-20.7-19-25
		c-2.9-1.3-5.5,3-2.5,4.3c8.2,3.5,16.5,11.2,16.5,20.7c0,9.5-8.4,17.1-16.5,20.7c1.3,0.7,2.5,1.4,3.8,2.2c0-15.2,0-30.4,0-45.7
		C123.7,54.2,118.7,54.2,118.7,57.4z"/>
</g>
<g>
	<path class="st0" d="M147,59.9c5.2,0,10.5,0,15.8,0c-0.8-1.1-1.6-2.1-2.4-3.2c-5.8,15.2-11.6,30.4-17.4,45.7
		c-0.6,1.5,0.9,3.2,2.4,3.2c6.1,0,12.2,0,18.4,0c3.2,0,3.2-5,0-5c-6.1,0-12.2,0-18.4,0c0.8,1.1,1.6,2.1,2.4,3.2
		c5.8-15.2,11.6-30.4,17.4-45.7c0.6-1.5-0.9-3.2-2.4-3.2c-5.2,0-10.5,0-15.8,0C143.8,54.9,143.8,59.9,147,59.9L147,59.9z"/>
</g>
<g>
	<path class="st0" d="M172.5,57.4c0,15.2,0,30.4,0,45.7c0,3.2,5,3.2,5,0c0-15.2,0-30.4,0-45.7C177.5,54.2,172.5,54.2,172.5,57.4
		L172.5,57.4z"/>
</g>
<g>
	<path class="st0" d="M191.2,103.1c0-15.2,0-30.4,0-45.7c-0.8,0.8-1.7,1.7-2.5,2.5c6.2,0.1,12.9,3.3,13.2,10.1
		c0.4,7.2-5.8,10.6-12.2,10.4c-3.2-0.1-3.2,4.9,0,5c9.2,0.4,17.6-5.6,17.2-15.4c-0.3-9.7-9.3-15-18.2-15.1c-1.4,0-2.5,1.2-2.5,2.5
		c0,15.2,0,30.4,0,45.7C186.2,106.3,191.2,106.3,191.2,103.1L191.2,103.1z"/>
</g>
<g>
	<path class="st0" d="M206.9,102.4c-2.6-7.1-5.2-14.1-7.9-21.2c-1.1-3-5.9-1.7-4.8,1.3c2.6,7.1,5.2,14.1,7.9,21.2
		C203.2,106.7,208,105.4,206.9,102.4L206.9,102.4z"/>
</g>
<g>
	<path class="st0" d="M220.5,103.1c0-15.2,0-30.4,0-45.7c-1.6,0.4-3.1,0.8-4.7,1.3c6.8,15,13.5,30.1,20.2,45.1
		c1.1,2.4,4.7,1.1,4.7-1.3c0-15,0-30.1,0-45.1c0-3.2-5-3.2-5,0c0,15,0,30.1,0,45.1c1.6-0.4,3.1-0.8,4.7-1.3
		c-6.8-15-13.5-30.1-20.2-45.1c-1.1-2.4-4.7-1.1-4.7,1.3c0,15.2,0,30.4,0,45.7C215.5,106.3,220.5,106.3,220.5,103.1L220.5,103.1z"/>
</g>
<g>
	<path class="st0" d="M250.9,103.8c4.7-15.2,9.3-30.4,14-45.7c0.9-3.1-3.9-4.4-4.8-1.3c-4.7,15.2-9.3,30.4-14,45.7
		C245.1,105.5,250,106.8,250.9,103.8L250.9,103.8z"/>
</g>
<g>
	<path class="st0" d="M266.1,85.3c4.4,0,8.9,0,13.3,0c1.6,0,2.9-1.6,2.4-3.2c-2.2-6.8-4.3-13.6-6.5-20.4c-0.8-2.4-4-2.3-4.8,0
		c-2.3,6.8-4.6,13.6-6.9,20.4c-1,3.1,3.8,4.4,4.8,1.3c2.3-6.8,4.6-13.6,6.9-20.4c-1.6,0-3.2,0-4.8,0c2.2,6.8,4.3,13.6,6.5,20.4
		c0.8-1.1,1.6-2.1,2.4-3.2c-4.4,0-8.9,0-13.3,0C262.9,80.3,262.9,85.3,266.1,85.3z"/>
</g>
<g>
	<path class="st0" d="M264.3,103.8c1-3,2.1-6,3.1-9c-0.8,0.6-1.6,1.2-2.4,1.8c6,0,12,0,18,0c-0.8-0.6-1.6-1.2-2.4-1.8
		c2.3,6.7,4.6,13.4,6.9,20.1c0.4,1.1,1.3,1.8,2.4,1.8c26.7,0,53.4,0,80.1,0c3.2,0,3.2-5,0-5c-26.7,0-53.4,0-80.1,0
		c0.8,0.6,1.6,1.2,2.4,1.8c-2.3-6.7-4.6-13.4-6.9-20.1c-0.4-1.1-1.3-1.8-2.4-1.8c-6,0-12,0-18,0c-1.2,0-2,0.8-2.4,1.8
		c-1,3-2.1,6-3.1,9C258.4,105.5,263.2,106.8,264.3,103.8L264.3,103.8z"/>
</g>
<g>
	<path class="st0" d="M281.2,57.5c4.8,15.4,9.6,30.9,14.4,46.3c0.7,2.4,4.1,2.4,4.8,0c4.8-15.2,9.5-30.4,14.2-45.7
		c1-3.1-3.9-4.4-4.8-1.3c-4.8,15.2-9.5,30.4-14.2,45.7c1.6,0,3.2,0,4.8,0c-4.8-15.4-9.6-30.9-14.4-46.3
		C285,53.1,280.2,54.4,281.2,57.5L281.2,57.5z"/>
</g>
<g>
	<path class="st0" d="M315.4,103.1c4.5-15.2,9-30.4,13.5-45.7c-1.6,0-3.2,0-4.8,0c3.8,15.2,7.6,30.4,11.4,45.7
		c0.8,3.1,5.6,1.8,4.8-1.3c-3.8-15.2-7.6-30.4-11.4-45.7c-0.6-2.4-4.1-2.3-4.8,0c-4.5,15.2-9,30.4-13.5,45.7
		C309.7,104.9,314.5,106.2,315.4,103.1L315.4,103.1z"/>
</g>
<g>
	<path class="st0" d="M318.3,87.1c5,0,10.1,0,15.1,0c3.2,0,3.2-5,0-5c-5,0-10.1,0-15.1,0C315.1,82.1,315,87.1,318.3,87.1L318.3,87.1
		z"/>
</g>
<g>
	<path class="st0" d="M342.5,94c0.6,8.4,9.5,13.1,17.3,11.1c6.9-1.8,9.7-9,8.2-15.6c-0.8-3.6-2.7-7-5.4-9.5
		c-3.5-3.3-8.6-4.3-11.2-8.5c-2.2-3.5-2.5-9,2.1-10.6c4.1-1.4,10.5-0.2,10.6,4.9c0.1,3.2,5.1,3.2,5,0c-0.2-8-7.7-11-14.9-10.1
		c-7.3,0.9-10.8,7.8-8.8,14.6c1,3.5,3.3,6.5,6.2,8.6c4.2,3.1,8.8,4.3,10.9,9.6c1.4,3.6,1.4,8.6-2.1,10.9c-4.4,2.9-12.5,0.3-12.9-5.4
		C347.3,90.9,342.3,90.8,342.5,94L342.5,94z"/>
</g>
<g>
	<path class="st0" d="M274.2,48.6c7.2,0,14.4,0,21.6,0c1.4,0,2.4-1.2,2.5-2.5c1-10.4-6.9-21.9-18-22.2c-3.2-0.1-3.2,4.9,0,5
		c8.5,0.2,13.7,9.5,13,17.2c0.8-0.8,1.7-1.7,2.5-2.5c-7.2,0-14.4,0-21.6,0C271,43.6,271,48.6,274.2,48.6L274.2,48.6z"/>
</g>
<g>
	<path class="st0" d="M255.1,3.1c3.6,12.2,7.2,24.5,10.8,36.7c0.9,3.1,5.7,1.8,4.8-1.3c-3.6-12.2-7.2-24.5-10.8-36.7
		C259-1.3,254.2,0,255.1,3.1L255.1,3.1z"/>
</g>
<g>
	<g>
		<path class="st0" d="M29.2,31.3c2-6.7,4-13.4,6-20.2c-0.7,0-1.4,0-2.1,0c1.7,6.7,3.3,13.4,5,20.2c0.3,1.4,2.5,0.8,2.1-0.6
			c-1.7-6.7-3.3-13.4-5-20.2c-0.3-1.1-1.8-1-2.1,0c-2,6.7-4,13.4-6,20.2C26.7,32.1,28.8,32.6,29.2,31.3L29.2,31.3z"/>
	</g>
	<g>
		<path class="st0" d="M30.5,24.2c2.2,0,4.5,0,6.7,0c1.4,0,1.4-2.2,0-2.2c-2.2,0-4.5,0-6.7,0C29.1,22,29.1,24.2,30.5,24.2L30.5,24.2
			z"/>
	</g>
</g>
<g>
	<g>
		<path class="st0" d="M121.1,31.3c2-6.7,4-13.4,6-20.2c-0.7,0-1.4,0-2.1,0c1.7,6.7,3.3,13.4,5,20.2c0.3,1.4,2.5,0.8,2.1-0.6
			c-1.7-6.7-3.3-13.4-5-20.2c-0.3-1.1-1.8-1-2.1,0c-2,6.7-4,13.4-6,20.2C118.5,32.1,120.7,32.6,121.1,31.3L121.1,31.3z"/>
	</g>
	<g>
		<path class="st0" d="M122.3,24.2c2.2,0,4.5,0,6.7,0c1.4,0,1.4-2.2,0-2.2c-2.2,0-4.5,0-6.7,0C120.9,22,120.9,24.2,122.3,24.2
			L122.3,24.2z"/>
	</g>
</g>
<g>
	<g>
		<path class="st0" d="M112.9,10.8c0,6.7,0,13.4,0,20.2c0,1.4,2.2,1.4,2.2,0c0-6.7,0-13.4,0-20.2C115.1,9.4,112.9,9.4,112.9,10.8
			L112.9,10.8z"/>
	</g>
	<g>
		<path class="st0" d="M119.6,9.7c-3.6,0-7.3,0-10.9,0c-1.4,0-1.4,2.2,0,2.2c3.6,0,7.3,0,10.9,0C121,11.9,121,9.7,119.6,9.7
			L119.6,9.7z"/>
	</g>
</g>
<g>
	<g>
		<path class="st0" d="M43.6,10.8c0,6.7,0,13.4,0,20.2c0,1.4,2.2,1.4,2.2,0c0-6.7,0-13.4,0-20.2C45.8,9.4,43.6,9.4,43.6,10.8
			L43.6,10.8z"/>
	</g>
	<g>
		<path class="st0" d="M50.3,9.7c-3.6,0-7.3,0-10.9,0c-1.4,0-1.4,2.2,0,2.2c3.6,0,7.3,0,10.9,0C51.7,11.9,51.7,9.7,50.3,9.7
			L50.3,9.7z"/>
	</g>
</g>
<g>
	<g>
		<path class="st0" d="M95.5,10.8c0,6.7,0,13.4,0,20.2c0,1.4,2.2,1.4,2.2,0c0-6.7,0-13.4,0-20.2C97.7,9.4,95.5,9.4,95.5,10.8
			L95.5,10.8z"/>
	</g>
	<g>
		<path class="st0" d="M104.3,9.7c-2.5,0-5.1,0-7.6,0c-1.4,0-1.4,2.2,0,2.2c2.5,0,5.1,0,7.6,0C105.8,11.9,105.8,9.7,104.3,9.7
			L104.3,9.7z"/>
	</g>
	<g>
		<path class="st0" d="M104.3,29.9c-2.5,0-5.1,0-7.6,0c-1.4,0-1.4,2.2,0,2.2c2.5,0,5.1,0,7.6,0C105.8,32.1,105.8,29.9,104.3,29.9
			L104.3,29.9z"/>
	</g>
	<g>
		<path class="st0" d="M101.7,22c-1.7,0-3.3,0-5,0c-1.4,0-1.4,2.2,0,2.2c1.7,0,3.3,0,5,0C103.1,24.2,103.1,22,101.7,22L101.7,22z"/>
	</g>
</g>
<g>
	<g>
		<path class="st0" d="M14.8,10.8c0,6.7,0,13.4,0,20.2c0,1.4,2.2,1.4,2.2,0c0-6.7,0-13.4,0-20.2C17,9.3,14.8,9.3,14.8,10.8
			L14.8,10.8z"/>
	</g>
	<g>
		<path class="st0" d="M23.6,10.2c-2.9,4.2-5.8,8.3-8.7,12.5c-0.8,1.2,1.1,2.3,1.9,1.1c2.9-4.2,5.8-8.3,8.7-12.5
			C26.3,10.1,24.4,9,23.6,10.2L23.6,10.2z"/>
	</g>
	<g>
		<path class="st0" d="M25,30.6c-1.6-3.9-3.3-7.8-4.9-11.7c-0.5-1.3-2.7-0.7-2.1,0.6c1.6,3.9,3.3,7.8,4.9,11.7
			C23.4,32.5,25.5,31.9,25,30.6L25,30.6z"/>
	</g>
</g>
<g>
	<path class="st0" d="M0.3,26.8c0.3,3.7,4.2,5.8,7.6,4.9c3-0.8,4.3-4,3.6-6.9c-0.3-1.6-1.2-3.1-2.4-4.2c-1.5-1.5-3.8-1.9-5-3.8
		c-1-1.5-1.1-4,0.9-4.7c1.8-0.6,4.6-0.1,4.7,2.2c0,1.4,2.2,1.4,2.2,0C12,10.8,8.7,9.4,5.5,9.9c-3.2,0.4-4.8,3.4-3.9,6.4
		c0.5,1.5,1.5,2.9,2.8,3.8c1.9,1.4,3.9,1.9,4.8,4.3c0.6,1.6,0.6,3.8-0.9,4.8c-2,1.3-5.5,0.1-5.7-2.4C2.4,25.4,0.2,25.4,0.3,26.8
		L0.3,26.8z"/>
</g>
<g>
	<path class="st0" d="M53.7,10.8c0,4,0,8,0,12c0,1.9-0.3,4.1,0.6,5.8c1.2,2.2,3.6,3.5,6.1,3.3c2.2-0.2,4.3-1.9,5-4
		c0.6-1.7,0.3-3.8,0.3-5.6c0-3.8,0-7.6,0-11.4c0-1.4-2.2-1.4-2.2,0c0,2.7,0,5.4,0,8.1c0,3.2,1.3,9.5-2.9,10.6
		c-5.9,1.6-4.7-6.8-4.7-10c0-2.9,0-5.8,0-8.8C55.9,9.3,53.7,9.3,53.7,10.8L53.7,10.8z"/>
</g>
<g>
	<path class="st0" d="M72.8,10.8c2.1,6.8,4.2,13.6,6.4,20.4c0.3,1,1.8,1,2.1,0c2.1-6.7,4.2-13.4,6.3-20.2c0.4-1.4-1.7-1.9-2.1-0.6
		c-2.1,6.7-4.2,13.4-6.3,20.2c0.7,0,1.4,0,2.1,0c-2.1-6.8-4.2-13.6-6.4-20.4C74.5,8.9,72.4,9.5,72.8,10.8L72.8,10.8z"/>
</g>
<g>
	<path class="st0" d="M90,10.8c0,6.7,0,13.4,0,20.2c0,1.4,2.2,1.4,2.2,0c0-6.7,0-13.4,0-20.2C92.2,9.4,90,9.4,90,10.8L90,10.8z"/>
</g>
</svg>
